# xmcd
#
# Track frame offsets:
#	150
#	22357
#	36371
#	53986
#	69073
#	90725
#	106794
#	125966
#	139764
#	156264
#
# Disc length: 2305 seconds
#
# Revision: 1
# Processed by: cddbd v1.4PL0 Copyright (c) Steve Scherf et al.
# Submitted via: EasyCDDAExtractor 5.0.7
#
DISCID=8d08ff0a
DTITLE=El Soldado - De Dardo Y Clavel
DYEAR=1900
DGENRE=
TTITLE0=De Dardo Y Clavel
TTITLE1=Feliz Cumpleaños
TTITLE2=Pluma De Aguila
TTITLE3=Dulce Filo De Mi Muerte
TTITLE4=El Secreto
TTITLE5=Un Tiempo En Montserrat
TTITLE6=Magica
TTITLE7=Mr. Power
TTITLE8=Blues De Soledades Batidas
TTITLE9=Efimera
EXTD=
EXTT0=
EXTT1=
EXTT2=
EXTT3=
EXTT4=
EXTT5=
EXTT6=
EXTT7=
EXTT8=
EXTT9=
PLAYORDER=
